<svg xmlns="http://www.w3.org/2000/svg" width="512" height="512" viewBox="0 0 512 512"><defs><linearGradient id="grad-main" x1="0%" x2="100%" y1="0%" y2="100%"><stop offset="0%" style="stop-color:#00d4ff"/><stop offset="40%" style="stop-color:#7b61ff"/><stop offset="100%" style="stop-color:#ff6b9d"/></linearGradient><linearGradient id="grad-vibe" x1="0%" x2="100%" y1="0%" y2="100%"><stop offset="0%" style="stop-color:#0f8"/><stop offset="50%" style="stop-color:#00d4ff"/><stop offset="100%" style="stop-color:#7b61ff"/></linearGradient><linearGradient id="grad-glow" x1="0%" x2="100%" y1="0%" y2="100%"><stop offset="0%" style="stop-color:#00d4ff;stop-opacity:.3"/><stop offset="100%" style="stop-color:#7b61ff;stop-opacity:.1"/></linearGradient><filter id="glow-soft"><feGaussianBlur result="blur" stdDeviation="6"/><feMerge><feMergeNode in="blur"/><feMergeNode in="SourceGraphic"/></feMerge></filter><filter id="glow-strong"><feGaussianBlur result="blur" stdDeviation="14"/><feMerge><feMergeNode in="blur"/><feMergeNode in="SourceGraphic"/></feMerge></filter><clipPath id="rounded-rect"><rect width="512" height="512" rx="108" ry="108"/></clipPath></defs><rect width="512" height="512" fill="#0D1117" rx="108" ry="108"/><g clip-path="url(#rounded-rect)" opacity=".05"><line x1="0" x2="512" y1="85" y2="85" stroke="#fff" stroke-width=".8"/><line x1="0" x2="512" y1="170" y2="170" stroke="#fff" stroke-width=".8"/><line x1="0" x2="512" y1="256" y2="256" stroke="#fff" stroke-width=".8"/><line x1="0" x2="512" y1="342" y2="342" stroke="#fff" stroke-width=".8"/><line x1="0" x2="512" y1="427" y2="427" stroke="#fff" stroke-width=".8"/><line x1="85" x2="85" y1="0" y2="512" stroke="#fff" stroke-width=".8"/><line x1="170" x2="170" y1="0" y2="512" stroke="#fff" stroke-width=".8"/><line x1="256" x2="256" y1="0" y2="512" stroke="#fff" stroke-width=".8"/><line x1="342" x2="342" y1="0" y2="512" stroke="#fff" stroke-width=".8"/><line x1="427" x2="427" y1="0" y2="512" stroke="#fff" stroke-width=".8"/><circle cx="85" cy="85" r="3" fill="#fff"/><circle cx="427" cy="85" r="3" fill="#fff"/><circle cx="85" cy="427" r="3" fill="#fff"/><circle cx="427" cy="427" r="3" fill="#fff"/></g><circle cx="256" cy="230" r="170" fill="none" stroke="url(#grad-vibe)" stroke-width="1.5" filter="url(#glow-strong)" opacity=".15"/><g filter="url(#glow-soft)" transform="translate(256, 220)"><circle cx="0" cy="0" r="100" fill="url(#grad-glow)" filter="url(#glow-strong)" opacity=".3"/><path fill="url(#grad-vibe)" d="M-55,-65 L35,0 L-55,65 Z" opacity=".92"/><path fill="none" stroke="url(#grad-vibe)" stroke-linecap="round" stroke-linejoin="round" stroke-width="13" d="M-15,-75 C40,-75 58,-50 58,-30 C58,-10 38,0 -5,10 C-35,18 -55,32 -55,52 C-55,72 -35,85 10,85 C50,85 68,65 68,45" opacity=".95"/><path fill="none" stroke="url(#grad-vibe)" stroke-linecap="round" stroke-width="2" d="M-30,-95 C10,-95 30,-80 50,-65 C70,-50 80,-30 80,-10" opacity=".25"/><path fill="none" stroke="url(#grad-vibe)" stroke-linecap="round" stroke-width="1.5" d="M-35,-85 C5,-85 25,-70 45,-55 C65,-40 75,-20 75,0" opacity=".15"/><rect width="5" height="55" x="72" y="-80" fill="url(#grad-vibe)" opacity=".9" rx="2.5"><animate attributeName="opacity" dur="1.2s" repeatCount="indefinite" values="0.9;0.15;0.9"/></rect></g><text x="256" y="390" fill="#fff" font-family="'SF Pro Display','Inter','Segoe UI',system-ui,-apple-system,sans-serif" font-size="52" font-weight="700" letter-spacing="8" text-anchor="middle">SYNERIX</text><text x="256" y="425" fill="#8B949E" font-family="'JetBrains Mono','Fira Code','SF Mono',monospace" font-size="14" letter-spacing="4" text-anchor="middle">AI-NATIVE CODING TERMINAL</text><rect width="122" height="22" x="195" y="440" fill="url(#grad-vibe)" opacity=".15" rx="11"/><text x="256" y="456" fill="#00D4FF" font-family="'JetBrains Mono',monospace" font-size="11" text-anchor="middle">VIBE CODING MODE</text></svg>